<svg width="16" height="20" viewBox="0 0 16 20" fill="none" xmlns="http://www.w3.org/2000/svg">
<path fill-rule="evenodd" clip-rule="evenodd" d="M7.035 0.535034L11.585 5.08503L7.035 9.53503V5.62503C4.195 6.10503 2.035 8.56503 2.035 11.535C2.035 14.505 4.195 16.965 7.035 17.445V19.465C3.085 18.975 0.0350037 15.615 0.0350037 11.535C0.0350037 7.45503 3.095 4.09503 7.035 3.60503V0.535034ZM14.345 6.64503C15.245 7.80503 15.795 9.14503 15.965 10.535H13.945C13.805 9.66503 13.465 8.81503 12.925 8.06503L14.345 6.64503ZM9.035 17.435V19.455C10.425 19.285 11.775 18.745 12.935 17.845L11.495 16.405C10.745 16.945 9.905 17.295 9.035 17.435ZM14.345 16.425L12.925 15.015C13.465 14.255 13.805 13.405 13.945 12.535H15.965C15.795 13.925 15.245 15.265 14.345 16.425Z" fill="#564DF9"/>
</svg>
